<?xml version="1.0" encoding="utf-8"?>
<!-- Generator: Adobe Illustrator 25.3.1, SVG Export Plug-In . SVG Version: 6.00 Build 0)  -->
<svg version="1.1" id="Screen_x5F_Main" xmlns="http://www.w3.org/2000/svg" xmlns:xlink="http://www.w3.org/1999/xlink" x="0px"
	 y="0px" viewBox="0 0 166.44 51.1" style="enable-background:new 0 0 166.44 51.1;" xml:space="preserve">
<style type="text/css">
	.st0{clip-path:url(#SVGID_2_);fill:#FFFFFF;}
	.st1{clip-path:url(#SVGID_4_);fill:url(#SVGID_5_);}
	.st2{clip-path:url(#SVGID_7_);fill:url(#SVGID_8_);}
	.st3{clip-path:url(#SVGID_10_);fill:url(#SVGID_11_);}
	.st4{clip-path:url(#SVGID_13_);fill:url(#SVGID_14_);}
	.st5{clip-path:url(#SVGID_16_);fill:#FFFFFF;}
	.st6{clip-path:url(#SVGID_18_);fill:#FFFFFF;}
	.st7{clip-path:url(#SVGID_20_);fill:url(#SVGID_21_);}
</style>
<g id="Logo_x5F_Metfone">
	<g>
		<g>
			<defs>
				<rect id="SVGID_1_" width="166.44" height="51.1"/>
			</defs>
			<clipPath id="SVGID_2_">
				<use xlink:href="#SVGID_1_"  style="overflow:visible;"/>
			</clipPath>
			<path class="st0" d="M132.72,31.44v-0.01c0-0.01-0.01-0.01-0.01-0.02L132.72,31.44z M133.88,22.96l0.01-0.01
				c0-0.01,0.01-0.01,0.01-0.02L133.88,22.96z M133.91,34.07c0-0.01-0.01-0.02-0.02-0.04c-0.01,0-0.01-0.01-0.01-0.01L133.91,34.07z
				 M136.8,29.99c-0.12-0.5-0.18-0.97-0.18-1.42c0.01-0.14,0.07-0.71,0.07-0.71s0.05-0.47,0.07-0.66c0.26-1.28,0.73-2.35,1.41-3.18
				l0.01-0.02c0.72-0.92,1.44-1.5,2.29-1.85l0.04-0.01c0.98-0.44,1.88-0.63,2.84-0.6h0.04c1.06,0,2.04,0.21,2.99,0.64l0.03,0.01
				l0.03,0.01c0.37,0.15,0.7,0.34,1.01,0.55C145.33,24.18,136.97,29.88,136.8,29.99 M150.36,27.49v1.34c0,0.69-0.07,1.21-0.22,1.6
				l-0.01,0.02l-0.01,0.02c-0.19,0.58-0.51,1.16-0.83,1.74c-0.59,0.99-1.39,1.77-2.45,2.38l-0.03,0.02
				c-0.51,0.32-1.05,0.54-1.61,0.67h-0.03l-0.02,0.01c-0.58,0.16-1.19,0.24-1.8,0.25c-0.2-0.03-1.34-0.2-1.53-0.23
				c-1.21-0.36-2.21-0.89-2.97-1.59c-0.01-0.02-0.03-0.03-0.04-0.04c0.12-0.08,14.72-9.97,14.72-9.97l-0.58-1.07
				c-0.83-1.52-2.1-2.75-3.9-3.76c-0.89-0.53-1.8-0.89-2.79-1.12c-0.9-0.25-1.9-0.38-2.97-0.38c-2.02,0-3.83,0.51-5.53,1.56
				c-1.61,0.99-2.91,2.34-3.88,4c-0.57,0.92-0.9,1.81-1.18,2.63l-0.01,0.03l-0.01,0.03c-0.26,0.91-0.39,1.86-0.39,2.82
				c0,1.2,0.13,2.15,0.41,2.98c0.29,0.96,0.68,1.81,1.18,2.6c0.98,1.71,2.35,3.08,4.06,4.06l0.02,0.01
				c1.77,0.97,3.66,1.45,5.63,1.41c1.92,0,3.68-0.42,5.25-1.25c1.69-0.87,3.02-2.08,4.05-3.7c0.65-0.97,1.05-1.84,1.26-2.74
				c0.29-0.92,0.42-1.9,0.42-3v-1.34h-4.21V27.49z M152.91,34.56C152.91,34.56,152.91,34.57,152.91,34.56
				c-0.01,0.01-0.01,0.02-0.02,0.03L152.91,34.56z M146.23,17.76c0.01,0,0.02,0.01,0.04,0.01c0.01,0,0.02,0.01,0.03,0.01
				L146.23,17.76z M149.04,18.88c0.01,0,0.01,0.01,0.02,0.01h0.01L149.04,18.88z M143.63,39.52h-0.02h-0.01H143.63z M129.58,21.53
				c0.01,0.02,0.02,0.04,0.03,0.06l0.01,0.01L129.58,21.53z M116.66,19.1c0.01-0.01,0.02-0.01,0.02-0.02
				c0.01-0.01,0.02-0.01,0.02-0.02L116.66,19.1z M129.61,21.58c-0.76-1.3-1.84-2.33-3.29-3.13l-0.03-0.02
				c-1.44-0.74-2.96-1.1-4.53-1.05h-0.03c-1,0.04-1.88,0.19-2.7,0.43l-0.04,0.01l-0.04,0.01c-0.93,0.34-1.69,0.76-2.26,1.23
				c-1.26,0.97-2.14,2.12-2.7,3.53c-0.53,1.3-0.77,2.48-0.77,3.59v13.03h4.23v-12.9c0-0.83,0.21-1.6,0.66-2.4
				c0.42-0.78,0.97-1.37,1.69-1.81l0.02-0.02c0.62-0.4,1.34-0.61,2.13-0.61h0.07c1.03,0,1.87,0.25,2.62,0.79
				c0.78,0.63,1.29,1.26,1.55,1.93l0.01,0.03c0.34,0.84,0.5,1.6,0.5,2.39v12.61h4.23V26.38c0-0.87-0.12-1.73-0.35-2.56
				C130.41,23.06,130.08,22.31,129.61,21.58 M130.58,23.8c0,0.01,0,0.02,0,0.02c0,0.01,0.01,0.03,0.01,0.04L130.58,23.8z
				 M79.07,9.69c-1.28,0.67-2.25,1.53-2.88,2.58c-0.67,1.07-0.99,2.24-0.99,3.67v23.28h4.23V21.84h7.73v-4.08h-7.73V16.8
				c0-1.27,0.27-2.19,0.83-2.84c0.36-0.38,0.67-0.63,1.06-0.82c0.38-0.19,0.81-0.27,1.4-0.27h4.43V8.79h-3.94
				C81.66,8.79,80.26,9.1,79.07,9.69 M67.05,12.6h-4.23v19.77c0,2.14,0.63,3.84,1.88,5.04s2.79,1.81,4.59,1.81h4.4v-4.2
				c0,0-3.63,0.11-3.74,0.12c-0.08,0-0.22-0.01-0.22-0.01c-0.36-0.02-0.73-0.04-0.9-0.11l-0.16-0.07l-0.17-0.02
				c-0.22-0.03-0.39-0.13-0.67-0.32l-0.07-0.05l-0.02-0.02c-0.37-0.22-0.59-0.76-0.67-1.6v-11.1h6.63v-4.08h-6.63V12.6H67.05z
				 M59.32,34.56C59.32,34.56,59.32,34.57,59.32,34.56c-0.01,0.01-0.01,0.02-0.02,0.03L59.32,34.56z M40.32,34.07
				c-0.01-0.01-0.01-0.02-0.02-0.04l-0.01-0.01L40.32,34.07z M50.04,39.52h-0.02h-0.01H50.04z M39.13,31.44v-0.01
				c0-0.01-0.01-0.01-0.01-0.02L39.13,31.44z M40.29,22.96l0.01-0.01c0-0.01,0.01-0.01,0.01-0.02L40.29,22.96z M43.21,29.99
				c-0.12-0.5-0.18-0.97-0.18-1.42c0.01-0.14,0.07-0.71,0.07-0.71s0.05-0.47,0.07-0.66c0.26-1.28,0.74-2.35,1.41-3.18L44.59,24
				c0.72-0.92,1.44-1.5,2.28-1.85l0.04-0.01c0.98-0.44,1.88-0.63,2.84-0.6h0.04c1.06,0,2.04,0.21,2.99,0.64l0.03,0.01l0.03,0.01
				c0.37,0.15,0.7,0.34,1.01,0.55C51.74,24.18,43.37,29.88,43.21,29.99 M56.77,28.83c0,0.69-0.07,1.21-0.22,1.6l-0.01,0.02
				l-0.01,0.02c-0.19,0.58-0.5,1.16-0.83,1.75c-0.59,0.99-1.39,1.77-2.45,2.38l-0.03,0.02c-0.51,0.31-1.05,0.54-1.61,0.67h-0.03
				l-0.03,0.01c-0.58,0.16-1.19,0.24-1.79,0.25c-0.21-0.03-1.35-0.2-1.53-0.23c-1.21-0.36-2.21-0.89-2.97-1.59
				c-0.01-0.02-0.02-0.03-0.04-0.04c0.12-0.08,14.72-9.97,14.72-9.97l-0.58-1.07c-0.83-1.52-2.1-2.75-3.9-3.76
				c-0.89-0.53-1.8-0.89-2.79-1.12c-0.9-0.25-1.9-0.38-2.97-0.38c-2.02,0-3.83,0.51-5.53,1.56c-1.61,0.99-2.91,2.34-3.88,4
				c-0.57,0.92-0.9,1.81-1.17,2.63l-0.01,0.03l-0.01,0.03c-0.26,0.91-0.39,1.86-0.39,2.82c0,1.2,0.13,2.15,0.41,2.98
				c0.29,0.96,0.68,1.81,1.17,2.6c0.98,1.71,2.36,3.08,4.07,4.06l0.02,0.01c1.77,0.97,3.66,1.45,5.63,1.41
				c1.92,0,3.68-0.42,5.25-1.25c1.69-0.87,3.02-2.08,4.05-3.7c0.66-0.99,1.06-1.88,1.27-2.8c-0.01,0.04-0.02,0.07-0.03,0.11
				l0.03-0.11c0.27-0.9,0.41-1.86,0.41-2.93V27.5h-4.23L56.77,28.83L56.77,28.83z M52.64,17.76c0.01,0,0.02,0.01,0.04,0.01
				c0.01,0,0.02,0.01,0.04,0.01L52.64,17.76z M55.45,18.88l0.01,0.01h0.01L55.45,18.88z M36.49,22.72c0,0.02,0.01,0.03,0.01,0.05
				c0,0.02,0.01,0.03,0.01,0.05L36.49,22.72z M35.66,20.81c-0.75-1.14-1.71-2.03-2.87-2.63c-1.16-0.58-2.39-0.87-3.67-0.87h-0.04
				c-1.57,0.05-2.94,0.43-4.16,1.17l-0.03,0.02c-0.52,0.34-0.97,0.71-1.35,1.14c-0.39-0.42-0.84-0.8-1.37-1.12
				c-1.26-0.75-2.69-1.14-4.16-1.14h-0.02h-0.02c-1.34,0.05-2.53,0.32-3.55,0.81c-1.17,0.56-2.14,1.41-2.9,2.53
				c-0.4,0.58-0.73,1.23-0.95,1.91l-0.01,0.03l-0.01,0.03c-0.18,0.65-0.28,1.37-0.28,2.14v14.38h4.16V25.3
				c0.1-1,0.29-1.72,0.57-2.13l0.01-0.02l0.01-0.02c0.35-0.57,0.78-0.98,1.29-1.25c0.53-0.28,1.06-0.41,1.64-0.41
				c0.73,0,1.26,0.13,1.78,0.43c0.56,0.31,0.98,0.73,1.31,1.31l0.01,0.02c0.32,0.54,0.49,1.21,0.49,1.99v14h4.16V25.06
				c0-0.32,0.04-0.63,0.14-1.02c0.11-0.34,0.25-0.63,0.39-0.84l0.01-0.02l0.01-0.02c0.37-0.6,0.75-0.98,1.2-1.19l0.02-0.01
				c0.58-0.29,1.13-0.42,1.74-0.42c0.6,0,1.14,0.12,1.66,0.39l0.02,0.01l0.03,0.01c0.46,0.21,0.85,0.57,1.23,1.16l0.01,0.02
				l0.01,0.02c0.26,0.36,0.36,0.62,0.4,0.77c0.1,0.4,0.15,0.73,0.15,1.05V39.2h4.15V25.06c0-0.8-0.12-1.58-0.36-2.3
				C36.32,22.04,36.03,21.38,35.66,20.81"/>
		</g>
	</g>
	<g>
		<g>
			<defs>
				<path id="SVGID_3_" d="M86.26,28.38c0,7.18,5.82,13,13,13s13-5.82,13-13s-5.82-13-13-13C92.07,15.38,86.26,21.2,86.26,28.38"/>
			</defs>
			<clipPath id="SVGID_4_">
				<use xlink:href="#SVGID_3_"  style="overflow:visible;"/>
			</clipPath>
			
				<radialGradient id="SVGID_5_" cx="-728.5277" cy="599.7163" r="0.8304" gradientTransform="matrix(15.6545 0 0 -15.6555 11503.9971 9417.2383)" gradientUnits="userSpaceOnUse">
				<stop  offset="0" style="stop-color:#971B1E"/>
				<stop  offset="0.7473" style="stop-color:#ED1C24"/>
				<stop  offset="0.838" style="stop-color:#F4787D"/>
				<stop  offset="0.9163" style="stop-color:#FAC1C3"/>
				<stop  offset="0.972" style="stop-color:#FEEEEE"/>
				<stop  offset="1" style="stop-color:#FFFFFF"/>
			</radialGradient>
			<rect x="86.26" y="15.38" class="st1" width="26" height="26"/>
		</g>
	</g>
	<g>
		<g>
			<defs>
				<path id="SVGID_6_" d="M99.12,16.59c-5.5,0.06-10.09,3.89-11.33,9.02c12.53-4.65,18.88,2.68,18.88,2.68
					c-6.58-3.77-16.51-0.48-19.2,0.53c0.23,6.31,5.42,11.35,11.78,11.35c5.56,0,10.21-3.84,11.46-9.02
					c-12.52,4.64-18.86-2.69-18.86-2.69c6.58,3.77,16.48,0.49,19.18-0.52c-0.23-6.26-5.34-11.28-11.65-11.35H99.12z"/>
			</defs>
			<clipPath id="SVGID_7_">
				<use xlink:href="#SVGID_6_"  style="overflow:visible;"/>
			</clipPath>
			
				<linearGradient id="SVGID_8_" gradientUnits="userSpaceOnUse" x1="-799.3994" y1="614.1116" x2="-798.569" y2="614.1116" gradientTransform="matrix(0 -28.396 -28.396 0 17537.5625 -22659.5762)">
				<stop  offset="0" style="stop-color:#F26522"/>
				<stop  offset="0.5" style="stop-color:#ED1C24"/>
				<stop  offset="1" style="stop-color:#A70E13"/>
			</linearGradient>
			<rect x="87.47" y="16.59" class="st2" width="23.56" height="23.58"/>
		</g>
	</g>
	<g>
		<g>
			<defs>
				<path id="SVGID_9_" d="M89.9,24.82c0,3.99,4.19,7.23,9.35,7.23c5.17,0,9.35-3.24,9.35-7.23s-4.19-7.23-9.35-7.23
					C94.09,17.59,89.9,20.83,89.9,24.82"/>
			</defs>
			<clipPath id="SVGID_10_">
				<use xlink:href="#SVGID_9_"  style="overflow:visible;"/>
			</clipPath>
			
				<linearGradient id="SVGID_11_" gradientUnits="userSpaceOnUse" x1="-739.8198" y1="684.2224" x2="-738.9896" y2="684.2224" gradientTransform="matrix(0 17.4061 17.4061 0 -11810.3887 12894.9668)">
				<stop  offset="0" style="stop-color:#F69679"/>
				<stop  offset="1" style="stop-color:#E11B22"/>
			</linearGradient>
			<rect x="89.9" y="17.59" class="st3" width="18.71" height="14.45"/>
		</g>
	</g>
	<g>
		<g>
			<defs>
				<path id="SVGID_12_" d="M110.71,31.16L110.71,31.16c0.05-0.21,0.1-0.43,0.14-0.64C110.81,30.73,110.76,30.95,110.71,31.16
					 M87.47,28.83c0.23,6.31,5.42,11.35,11.78,11.35c5.56,0,10.21-3.84,11.46-9.02c-0.04,0.01-0.08,0.03-0.12,0.04
					c-1.4,4.81-5.94,8.34-11.34,8.34c-6.25,0-11.36-4.74-11.76-10.72C87.49,28.82,87.48,28.82,87.47,28.83"/>
			</defs>
			<clipPath id="SVGID_13_">
				<use xlink:href="#SVGID_12_"  style="overflow:visible;"/>
			</clipPath>
			
				<linearGradient id="SVGID_14_" gradientUnits="userSpaceOnUse" x1="-750.1296" y1="618.1735" x2="-749.2991" y2="618.1735" gradientTransform="matrix(28.3961 0 0 -28.3961 21388.2246 17588.2168)">
				<stop  offset="0" style="stop-color:#F26522"/>
				<stop  offset="0.5" style="stop-color:#ED1C24"/>
				<stop  offset="1" style="stop-color:#A70E13"/>
			</linearGradient>
			<rect x="87.47" y="28.82" class="st4" width="23.37" height="11.36"/>
		</g>
	</g>
	<g>
		<g>
			<defs>
				<rect id="SVGID_15_" width="166.44" height="51.1"/>
			</defs>
			<clipPath id="SVGID_16_">
				<use xlink:href="#SVGID_15_"  style="overflow:visible;"/>
			</clipPath>
			<path class="st5" d="M106.67,28.3c0,0-6.35-7.34-18.88-2.68c-0.21,0.89-0.33,1.81-0.33,2.77c0,0.15,0.01,0.29,0.01,0.44
				C90.15,27.82,100.08,24.52,106.67,28.3"/>
		</g>
		<g>
			<defs>
				<rect id="SVGID_17_" width="166.44" height="51.1"/>
			</defs>
			<clipPath id="SVGID_18_">
				<use xlink:href="#SVGID_17_"  style="overflow:visible;"/>
			</clipPath>
			<path class="st6" d="M111.03,27.95c-2.7,1.01-12.61,4.29-19.19,0.52c0,0,6.34,7.33,18.86,2.69c0.21-0.89,0.34-1.8,0.34-2.75
				C111.05,28.26,111.04,28.09,111.03,27.95"/>
		</g>
	</g>
	<g>
		<g>
			<defs>
				<path id="SVGID_19_" d="M106.58,29.31c-1.71,1.67-4.36,2.74-7.33,2.74c-0.53,0-1.05-0.04-1.55-0.1
					c3.11,0.97,7.45,1.27,13.01-0.79c0.21-0.89,0.34-1.8,0.34-2.76c0-0.15-0.01-0.31-0.02-0.46
					C110.17,28.27,108.57,28.82,106.58,29.31"/>
			</defs>
			<clipPath id="SVGID_20_">
				<use xlink:href="#SVGID_19_"  style="overflow:visible;"/>
			</clipPath>
			
				<radialGradient id="SVGID_21_" cx="-702.6924" cy="577.7686" r="0.8304" gradientTransform="matrix(10.1924 0 0 -10.1924 7264.6094 5919.6895)" gradientUnits="userSpaceOnUse">
				<stop  offset="0" style="stop-color:#FFFFFF"/>
				<stop  offset="0.2292" style="stop-color:#F7F8F8"/>
				<stop  offset="0.5795" style="stop-color:#E2E3E4"/>
				<stop  offset="1" style="stop-color:#C0C2C4"/>
			</radialGradient>
			<rect x="97.7" y="27.95" class="st7" width="13.35" height="5.27"/>
		</g>
	</g>
</g>
</svg>
