<?xml version="1.0" encoding="utf-8"?>
<!-- Generator: Adobe Illustrator 25.3.1, SVG Export Plug-In . SVG Version: 6.00 Build 0)  -->
<svg version="1.1" id="Screen_x5F_Main" xmlns="http://www.w3.org/2000/svg" xmlns:xlink="http://www.w3.org/1999/xlink" x="0px"
	 y="0px" viewBox="0 0 107.73 107.73" style="enable-background:new 0 0 107.73 107.73;" xml:space="preserve">
<style type="text/css">
	.st0{fill:#EE1C25;}
	.st1{fill:#FFFF00;}
	.st2{fill:#012169;}
	.st3{fill:#C8102E;}
	.st4{fill:#FFFFFF;}
	.st5{fill:#032EA1;}
	.st6{fill:#E00025;}
	.st7{fill:none;stroke:#FF0000;stroke-width:5;stroke-miterlimit:10;}
	.st8{fill:#FF0000;}
	.st9{fill:none;stroke:#FF0000;stroke-width:5;stroke-linecap:round;stroke-linejoin:round;stroke-miterlimit:10;}
	.st10{fill:none;stroke:#FF0000;stroke-width:5;stroke-linecap:round;stroke-miterlimit:10;}
	.st11{fill:none;stroke:#FF0000;stroke-width:7.5;stroke-miterlimit:10;}
	.st12{fill:#F3C012;}
	.st13{fill:#E22028;}
	.st14{fill:#F7FFFF;}
	.st15{fill:#046A93;}
	.st16{fill:#DA1F26;}
	.st17{clip-path:url(#SVGID_9_);fill:#FFFFFF;}
	.st18{clip-path:url(#SVGID_11_);fill:url(#SVGID_12_);}
	.st19{clip-path:url(#SVGID_14_);fill:url(#SVGID_15_);}
	.st20{clip-path:url(#SVGID_17_);fill:url(#SVGID_18_);}
	.st21{clip-path:url(#SVGID_20_);fill:url(#SVGID_21_);}
	.st22{clip-path:url(#SVGID_23_);fill:#FFFFFF;}
	.st23{clip-path:url(#SVGID_25_);fill:url(#SVGID_26_);}
	.st24{fill:#F9A11E;}
	.st25{fill:#3A9849;}
	.st26{fill:#D84079;}
	.st27{fill:#EFAC3D;}
	.st28{fill:#E98A2F;}
	.st29{clip-path:url(#SVGID_27_);}
	.st30{clip-path:url(#SVGID_29_);}
	.st31{clip-path:url(#SVGID_31_);}
	.st32{fill-rule:evenodd;clip-rule:evenodd;fill:#EC1C24;}
	.st33{fill:#F48120;}
	.st34{fill:#DD2381;}
	.st35{fill:#00A9E1;}
	.st36{fill:#E11D8D;}
	.st37{clip-path:url(#SVGID_33_);fill:#E3932A;}
	.st38{clip-path:url(#SVGID_33_);fill:#8867AC;}
	.st39{clip-path:url(#SVGID_33_);fill:#EA2927;}
	.st40{clip-path:url(#SVGID_33_);fill:#B02025;}
	.st41{clip-path:url(#SVGID_33_);fill:#E46526;}
	.st42{clip-path:url(#SVGID_33_);fill:#FFD00A;}
	.st43{clip-path:url(#SVGID_33_);fill:#4992B4;}
	.st44{clip-path:url(#SVGID_33_);fill:#54B848;}
	.st45{clip-path:url(#SVGID_33_);fill:#006F7B;}
	.st46{clip-path:url(#SVGID_33_);fill:#222020;}
	.st47{fill:#F39700;}
	.st48{fill:#E74F07;}
	.st49{fill:url(#SVGID_34_);}
	.st50{fill:url(#SVGID_35_);}
	.st51{fill:#A50451;}
	.st52{fill:url(#SVGID_36_);}
</style>
<g id="Logo_x5F_PayGo">
	<g>
		<path class="st15" d="M53.83,0C24.09,0,0,24.13,0,53.87c0,12.55,4.3,24.13,11.5,33.29c9.47-23.48,16.99-42.63,22.91-67.81
			c4.74,0.68,9.27,0.51,14.41-0.91c0.07,5.38,0.2,9.64,0.2,9.64s28.86-19.22,38.88-3.62c6.77,10.52,2.44,33.87-10.9,48.42
			c-15.5,16.85-36.2,22.06-46.25,6.7c-2.57,8.02-4.8,14.55-6.46,19.32c8.49,5.58,18.64,8.83,29.57,8.83
			c29.74,0,53.87-24.13,53.87-53.87S83.58,0,53.83,0z"/>
	</g>
	<g>
		<path class="st15" d="M65.03,63.71c10.32-15.67,8.19-27.85,3.11-30.45c-6.5-3.32-16.55,1.25-20.54,3.96c0,0-6.73,12.15-8.43,22.67
			c-1.39,8.76,0.85,13.4,6.9,14.65C53.02,75.96,59.99,71.36,65.03,63.71z"/>
	</g>
</g>
</svg>
