<?xml version="1.0" encoding="utf-8"?>
<!-- Generator: Adobe Illustrator 25.3.1, SVG Export Plug-In . SVG Version: 6.00 Build 0)  -->
<svg version="1.1" id="Screen_x5F_Main" xmlns="http://www.w3.org/2000/svg" xmlns:xlink="http://www.w3.org/1999/xlink" x="0px"
	 y="0px" viewBox="0 0 96.25 70.43" style="enable-background:new 0 0 96.25 70.43;" xml:space="preserve">
<style type="text/css">
	.st0{fill:#EE1C25;}
	.st1{fill:#FFFF00;}
	.st2{fill:#012169;}
	.st3{fill:#C8102E;}
	.st4{fill:#FFFFFF;}
	.st5{fill:#032EA1;}
	.st6{fill:#E00025;}
	.st7{fill:none;stroke:#FF0000;stroke-width:5;stroke-miterlimit:10;}
	.st8{fill:#FF0000;}
	.st9{fill:none;stroke:#FF0000;stroke-width:5;stroke-linecap:round;stroke-linejoin:round;stroke-miterlimit:10;}
	.st10{fill:none;stroke:#FF0000;stroke-width:5;stroke-linecap:round;stroke-miterlimit:10;}
	.st11{fill:none;stroke:#FF0000;stroke-width:7.5;stroke-miterlimit:10;}
	.st12{fill:#F3C012;}
	.st13{fill:#E22028;}
	.st14{fill:#F7FFFF;}
	.st15{fill:#046A93;}
	.st16{fill:#DA1F26;}
	.st17{clip-path:url(#SVGID_9_);fill:#FFFFFF;}
	.st18{clip-path:url(#SVGID_11_);fill:url(#SVGID_12_);}
	.st19{clip-path:url(#SVGID_14_);fill:url(#SVGID_15_);}
	.st20{clip-path:url(#SVGID_17_);fill:url(#SVGID_18_);}
	.st21{clip-path:url(#SVGID_20_);fill:url(#SVGID_21_);}
	.st22{clip-path:url(#SVGID_23_);fill:#FFFFFF;}
	.st23{clip-path:url(#SVGID_25_);fill:url(#SVGID_26_);}
	.st24{fill:#F9A11E;}
	.st25{fill:#3A9849;}
	.st26{fill:#D84079;}
	.st27{fill:#EFAC3D;}
	.st28{fill:#E98A2F;}
	.st29{clip-path:url(#SVGID_27_);}
	.st30{clip-path:url(#SVGID_29_);}
	.st31{clip-path:url(#SVGID_31_);}
	.st32{fill-rule:evenodd;clip-rule:evenodd;fill:#EC1C24;}
	.st33{fill:#F48120;}
	.st34{fill:#DD2381;}
	.st35{fill:#00A9E1;}
	.st36{fill:#E11D8D;}
	.st37{clip-path:url(#SVGID_33_);fill:#E3932A;}
	.st38{clip-path:url(#SVGID_33_);fill:#8867AC;}
	.st39{clip-path:url(#SVGID_33_);fill:#EA2927;}
	.st40{clip-path:url(#SVGID_33_);fill:#B02025;}
	.st41{clip-path:url(#SVGID_33_);fill:#E46526;}
	.st42{clip-path:url(#SVGID_33_);fill:#FFD00A;}
	.st43{clip-path:url(#SVGID_33_);fill:#4992B4;}
	.st44{clip-path:url(#SVGID_33_);fill:#54B848;}
	.st45{clip-path:url(#SVGID_33_);fill:#006F7B;}
	.st46{clip-path:url(#SVGID_33_);fill:#222020;}
	.st47{fill:#F39700;}
	.st48{fill:#E74F07;}
	.st49{fill:url(#SVGID_34_);}
	.st50{fill:url(#SVGID_35_);}
	.st51{fill:#A50451;}
	.st52{fill:url(#SVGID_36_);}
</style>
<g id="Logo_x5F_True_x5F_money">
	<path class="st32" d="M12.1,0H3.88v6.79H0v7.53h3.88v8.82c0,6.93,5.61,11.34,12.53,11.34h4.84v-7.21h-4.86
		c-2.37,0-4.29-1.92-4.29-4.29v-8.67l5.39-0.02c2.1-0.09,3.76-1.8,3.76-3.95V6.79H12.1V0L12.1,0z M59.29,23.32L59.29,23.32
		c0,2.35-1.92,4.29-4.31,4.29c-2.37,0-4.27-1.94-4.27-4.29V10.77c0-2.19-1.77-3.97-3.98-3.97h-4.28v15.45
		c0,6.95,3.75,12.58,12.53,12.58c8.79,0,12.55-5.63,12.55-12.58V6.79h-8.24V23.32L59.29,23.32z M95.87,21.47L95.87,21.47
		C95.81,12.9,91.16,6.15,82.5,6.15c-7.44,0-13.45,6.01-13.45,14.29c0,8.93,5.45,14.21,13.51,14.38c5.23,0,9.79-2.93,12.12-7.24
		l-7.52-1.97c-0.92,1.37-2.65,2.32-4.66,2.32c-2.94,0-5.31-2.1-5.39-4.65h18.77C95.89,22.88,95.87,21.9,95.87,21.47L95.87,21.47z
		 M77.1,17.63L77.1,17.63c0.09-2.56,2.45-4.64,5.39-4.64c2.97,0,5.36,2.07,5.4,4.64H77.1L77.1,17.63z M35.72,6.79L35.72,6.79h-0.14
		H34.6c-6.29,0-11.41,5.11-11.41,11.42v16.28h8.22V18.62c0-2.39,1.92-4.29,4.31-4.29h4.81V6.79h-3.08H35.72z"/>
	<g>
		<path class="st33" d="M41.8,56.54c-0.79,1.04-1.91,1.68-3.27,1.68c-1.38,0-2.51-0.64-3.3-1.68c-0.8-1.06-1.24-2.49-1.24-4.09
			c0-1.62,0.44-3.1,1.24-4.12c0.79-1.05,1.92-1.72,3.3-1.72c1.35,0,2.48,0.67,3.27,1.72c0.78,1.01,1.25,2.49,1.25,4.12
			C43.04,54.04,42.58,55.48,41.8,56.54L41.8,56.54z M38.53,42.32L38.53,42.32c-2.41,0-4.56,1.13-6.08,2.96
			c-1.55,1.85-2.51,4.33-2.51,7.17c0,2.75,0.95,5.31,2.51,7.13c1.53,1.82,3.67,2.96,6.08,2.96c2.35,0,4.52-1.14,6.05-2.96
			c1.56-1.82,2.5-4.38,2.5-7.13c0-2.79-0.95-5.32-2.5-7.17C43.04,43.45,40.88,42.32,38.53,42.32z"/>
		<path class="st33" d="M57.05,42.32c-1.9,0-3.76,1.05-4.9,2.63v-0.02c0-0.65-0.23-1.27-0.6-1.72c-0.37-0.45-0.89-0.73-1.45-0.73
			c-0.57,0-1.06,0.28-1.44,0.75c-0.34,0.43-0.57,1.05-0.57,1.7v15.09c0,0.65,0.23,1.26,0.61,1.66c0.37,0.4,0.88,0.69,1.45,0.69
			c0.56,0,1.05-0.29,1.42-0.69c0.37-0.4,0.6-1.01,0.6-1.66v-8.51c0-1.29,0.36-2.55,1.01-3.42c0.67-0.89,1.64-1.48,2.93-1.48
			c1.23,0,2.14,0.53,2.75,1.37c0.64,0.88,0.97,2.11,0.97,3.49v8.55c0,0.65,0.2,1.26,0.6,1.66c0.37,0.4,0.87,0.69,1.44,0.69
			c0.56,0,1.07-0.29,1.42-0.69c0.36-0.4,0.6-1.01,0.6-1.66v-8.69c0-2.53-0.61-4.8-1.78-6.42C60.92,43.29,59.19,42.3,57.05,42.32z"/>
		<path class="st33" d="M73.3,46.41c1.14,0.02,2.09,0.48,2.83,1.25c0.67,0.71,1.12,1.68,1.32,2.8h-8.28
			c0.22-1.18,0.66-2.13,1.31-2.84C71.21,46.85,72.16,46.43,73.3,46.41L73.3,46.41z M80.5,56.5L80.5,56.5h-0.03
			c-0.33-0.51-0.83-0.82-1.35-0.82c-0.38,0-0.75,0.12-1.08,0.49c-1.23,1.4-2.74,2.27-4.51,2.27c-1.25,0-2.31-0.52-3.11-1.36
			c-0.71-0.77-1.23-1.84-1.34-3.08h10.9c0.42,0,0.79-0.17,1.08-0.44c0.28-0.31,0.48-0.71,0.48-1.22c0-2.84-0.89-5.33-2.34-7.15
			c-1.47-1.78-3.55-2.89-5.9-2.88c-2.37,0-4.48,1.13-6.01,2.96c-1.53,1.84-2.45,4.38-2.45,7.17c0,2.77,0.95,5.31,2.5,7.13
			c1.55,1.82,3.7,2.96,6.08,2.96c2.6,0,5.23-1.29,6.83-3.28v-0.04c0.35-0.45,0.56-1.01,0.56-1.56C80.82,57.24,80.69,56.86,80.5,56.5
			z"/>
		<path class="st33" d="M96.25,44.67c0-0.93-0.51-1.74-1.2-2.03h-0.02c-0.2-0.1-0.4-0.16-0.6-0.16c-0.73,0-1.39,0.51-1.68,1.32
			l-4.17,11.07l-4.24-11.1c-0.27-0.79-0.96-1.3-1.7-1.3c-0.23,0-0.48,0.06-0.71,0.16h-0.01c-0.68,0.35-1.13,1.16-1.13,2.06
			c0,0.12,0.02,0.24,0.07,0.41c0.15,0.55,0.54,1.71,1.07,3.12c1.49,4.11,4.01,10.53,4.53,11.91c-1.11,2.74-2.9,4.99-5.34,6.27
			c-0.33,0.2-0.61,0.43-0.79,0.73c-0.22,0.34-0.34,0.73-0.34,1.17c0,0.55,0.18,1.06,0.51,1.44c0.29,0.38,0.72,0.67,1.22,0.67
			c0.23,0,0.48-0.12,0.67-0.2c3.75-1.7,6.37-5.22,7.9-9.31l5.81-15.36C96.23,45.28,96.25,44.95,96.25,44.67z"/>
		<path class="st33" d="M22.69,42.31c-2.28,0-4.37,1.33-5.48,3.36c-0.45-0.93-1.04-1.73-1.79-2.31c-0.9-0.68-1.95-1.05-3.19-1.05
			c-1.79,0-3.09,1.05-4.12,2.58c-0.01-0.64-0.19-1.23-0.56-1.67c-0.33-0.46-0.87-0.74-1.4-0.74c-0.55,0-1.21,0.28-1.55,0.74
			c-0.34,0.44-0.54,1.05-0.54,1.71v6.52v8.53c0,0.64,0.21,1.25,0.53,1.68c0.33,0.44,0.96,0.72,1.48,0.72c0.56,0,1.14-0.28,1.48-0.72
			c0.36-0.44,0.57-1.02,0.57-1.68v-8.45c0-1.32,0.04-2.55,0.6-3.44c0.59-0.87,1.42-1.45,2.63-1.45c1.16,0.03,1.94,0.51,2.46,1.37
			c0.52,0.83,0.68,2.06,0.68,3.46v8.51c0,1.28,0.83,2.41,1.91,2.41c0.53,0,1.17-0.28,1.5-0.72c0.32-0.44,0.59-1.05,0.59-1.68v-8.65
			c0-1.26,0.24-2.45,0.83-3.29c0.58-0.85,1.41-1.39,2.58-1.39c1.18,0.03,1.92,0.51,2.46,1.37c0.51,0.83,0.53,2.06,0.53,3.46v8.51
			c0,0.64,0.2,1.25,0.55,1.68c0.33,0.44,0.89,0.72,1.45,0.72c0.52,0,1.15-0.28,1.5-0.72c0.36-0.44,0.56-1.02,0.56-1.68v-8.75
			c0-2.58-0.44-4.77-1.5-6.35C26.44,43.22,24.83,42.29,22.69,42.31z"/>
	</g>
</g>
</svg>
