<?xml version="1.0" encoding="utf-8"?>
<!-- Generator: Adobe Illustrator 25.3.1, SVG Export Plug-In . SVG Version: 6.00 Build 0)  -->
<svg version="1.1" id="Layer_1" xmlns="http://www.w3.org/2000/svg" xmlns:xlink="http://www.w3.org/1999/xlink" x="0px" y="0px"
	 viewBox="0 0 89 96" style="enable-background:new 0 0 89 96;" xml:space="preserve">
<style type="text/css">
	.st0{fill:url(#SVGID_1_);}
	.st1{fill:url(#SVGID_2_);}
	.st2{fill:#FFFFFF;}
	.st3{fill:#F9C018;}
	.st4{fill:#E12027;}
	.st5{fill:#F8991C;}
	.st6{fill:#EA242A;}
	.st7{fill:#01A850;}
	.st8{fill:#F7931E;}
	.st9{fill:#ED1E79;}
	.st10{fill:#0071BC;}
	.st11{fill:#E24747;}
	.st12{fill:#F15A24;}
	.st13{fill:#39B54A;}
	.st14{filter:url(#Adobe_OpacityMaskFilter);}
	.st15{opacity:0.75;mask:url(#SVGID_3_);}
	.st16{fill:#AFAFAF;}
	.st17{filter:url(#Adobe_OpacityMaskFilter_1_);}
	.st18{opacity:0.75;mask:url(#SVGID_4_);}
	.st19{fill:#EE288A;}
</style>
<g>
	<g>
		<path d="M-0.46,85.23V74.93c0-1.29,1.05-2.34,2.34-2.34h0c1.29,0,2.34,1.05,2.34,2.34v10.7c0,4.78,1.68,6.4,4.44,6.4
			c2.79,0,4.56-1.61,4.56-6.4V74.84c0-1.24,1.01-2.25,2.25-2.25h0c1.24,0,2.25,1.01,2.25,2.25v10.39C17.73,92.86,14.4,96,8.67,96
			C2.96,96-0.46,92.86-0.46,85.23z"/>
		<path d="M23.67,85.04h5.39c0.9,0,1.63,0.73,1.63,1.63l0,0c0,0.9-0.73,1.63-1.63,1.63h-5.39c-0.9,0-1.63-0.73-1.63-1.63l0,0
			C22.04,85.77,22.77,85.04,23.67,85.04z"/>
		<path d="M35.09,74.93c0-1.29,1.05-2.34,2.34-2.34h5.35c5.2,0,9.19,1.77,9.19,7.2c0,5.25-4.02,7.61-9.06,7.61h-3.14v5.82
			c0,1.29-1.05,2.34-2.34,2.34h0c-1.29,0-2.34-1.05-2.34-2.34V74.93z M42.6,83.77c3.23,0,4.78-1.33,4.78-3.97
			c0-2.67-1.71-3.57-4.94-3.57h-2.66v7.54H42.6z"/>
		<path d="M65.44,89.67h-7.6l-1.19,4.27c-0.27,0.96-1.14,1.63-2.14,1.63h0c-1.51,0-2.58-1.48-2.11-2.91l5.7-17.44
			c0.51-1.56,1.97-2.62,3.62-2.62h0c1.64,0,3.1,1.06,3.61,2.62l5.72,17.44c0.47,1.44-0.6,2.92-2.11,2.92h-0.15
			c-1,0-1.87-0.66-2.14-1.63L65.44,89.67z M64.43,86.1l-0.7-2.51c-0.73-2.39-1.36-5.03-2.06-7.51h-0.13c-0.6,2.52-1.3,5.12-2,7.51
			l-0.7,2.51H64.43z"/>
		<path d="M78.12,87.15l-5.51-11.4c-0.71-1.46,0.36-3.16,1.98-3.16h0c0.89,0,1.69,0.53,2.03,1.35l1.78,4.24
			c0.67,1.71,1.3,3.32,2.03,5.09h0.13c0.73-1.77,1.43-3.38,2.09-5.09l1.79-4.27c0.34-0.8,1.12-1.32,1.99-1.32l0,0
			c1.59,0,2.64,1.67,1.94,3.1l-5.56,11.46v6.07c0,1.29-1.05,2.34-2.34,2.34l0,0c-1.29,0-2.34-1.05-2.34-2.34V87.15z"/>
	</g>
	<g>
		<path class="st3" d="M58.85,0.72H29.28c-3.31,0-6.02,2.71-6.02,6.02v25.02c0,11.44,9.36,20.8,20.8,20.8l0,0
			c11.44,0,20.8-9.36,20.8-20.8V6.74C64.87,3.43,62.16,0.72,58.85,0.72z"/>
		<path class="st4" d="M58.85,5.74H29.28c-3.31,0-6.02,2.71-6.02,6.02v25.02c0,11.44,9.36,20.8,20.8,20.8l0,0
			c11.44,0,20.8-9.36,20.8-20.8V11.76C64.87,8.45,62.16,5.74,58.85,5.74z"/>
		<g>
			<path class="st2" d="M32.6,31.6c-0.2-0.02-0.41-0.03-0.61-0.01c-0.2,0.02-0.39,0.08-0.57,0.16c-0.15,0.07-0.29,0.16-0.41,0.27
				c-0.12,0.11-0.21,0.25-0.27,0.4c-0.01,0.01-0.01,0.03-0.02,0.04c-0.15,0.43,0.05,0.81,0.36,1.1l7.8,7.55
				c0.54,0.52,1.42,0.45,1.87-0.15c2.34-3.18,4.69-5.98,6.48-8.02c1.19-1.35,2.3-2.57,3.36-3.67c0.96-1,1.92-1.91,2.84-2.77
				c1.15-1.08,2.44-2.24,3.5-3.05c0.49-0.37,0.67-1.05,0.38-1.59c-0.35-0.66-1.17-0.86-1.78-0.47c-1.78,1.14-3.45,2.31-4.79,3.23
				c-0.92,0.64-1.78,1.25-2.59,1.84c-0.8,0.58-1.63,1.21-2.5,1.88c-0.39,0.3-0.77,0.62-1.15,0.95c-0.48,0.41-0.95,0.83-1.42,1.25
				c-0.49,0.44-0.99,0.88-1.48,1.32c-0.64,0.56-1.27,1.13-1.93,1.67c-0.12,0.1-0.24,0.18-0.4,0.21c-0.3,0.05-0.62-0.12-0.89-0.23
				c-0.95-0.4-1.91-0.76-2.88-1.1C34.56,32.08,33.61,31.71,32.6,31.6z M39.91,42.12"/>
		</g>
	</g>
</g>
</svg>
