<?xml version="1.0" encoding="utf-8"?>
<!-- Generator: Adobe Illustrator 25.3.1, SVG Export Plug-In . SVG Version: 6.00 Build 0)  -->
<svg version="1.1" id="Layer_1" xmlns="http://www.w3.org/2000/svg" xmlns:xlink="http://www.w3.org/1999/xlink" x="0px" y="0px"
	 viewBox="0 0 125 125" style="enable-background:new 0 0 125 125;" xml:space="preserve">
<style type="text/css">
	.st0{fill:#FFFFFF;}
</style>
<path class="st0" d="M124.6,62.5c0,34.3-27.8,62.1-62.1,62.1S0.4,96.8,0.4,62.5S28.2,0.4,62.5,0.4S124.6,28.2,124.6,62.5z M62.5,7.4
	C32.07,7.4,7.4,32.07,7.4,62.5s24.67,55.1,55.1,55.1s55.1-24.67,55.1-55.1S92.93,7.4,62.5,7.4z"/>
<path class="st0" d="M32.82,66.38L56.2,81.27c2.14,1.35,4.99,0.72,6.34-1.41c0.66-1.03,0.88-2.26,0.62-3.46
	c-0.27-1.2-0.98-2.23-2.02-2.89l-9.14-5.82h37.14c2.85,0,5.18-2.32,5.18-5.18c0-2.85-2.32-5.18-5.18-5.18H51.99l9.14-5.82
	c1.04-0.66,1.76-1.69,2.03-2.89c0.27-1.2,0.05-2.43-0.62-3.47c-0.85-1.33-2.3-2.12-3.88-2.12c-0.87,0-1.72,0.25-2.47,0.72
	L32.82,58.62c-1.33,0.85-2.12,2.3-2.12,3.88C30.7,64.08,31.49,65.53,32.82,66.38z"/>
</svg>
