<?xml version="1.0" encoding="utf-8"?>
<!-- Generator: Adobe Illustrator 25.3.1, SVG Export Plug-In . SVG Version: 6.00 Build 0)  -->
<svg version="1.1" id="Layer_1" xmlns="http://www.w3.org/2000/svg" xmlns:xlink="http://www.w3.org/1999/xlink" x="0px" y="0px"
	 viewBox="0 0 75 88" style="enable-background:new 0 0 75 88;" xml:space="preserve">
<style type="text/css">
	.st0{fill:#FFFFFF;}
</style>
<g>
	<path class="st0" d="M65.81,32.56c0,17.81-14.44,32.25-32.25,32.25S1.31,50.37,1.31,32.56S15.75,0.3,33.56,0.3
		S65.81,14.74,65.81,32.56z M33.56,4.12c-15.71,0-28.44,12.73-28.44,28.44S17.85,61,33.56,61S62,48.26,62,32.56
		S49.26,4.12,33.56,4.12z"/>
	<path class="st0" d="M74.13,32.99c0.09-8.69-2.55-16.76-7.12-23.4c-0.3-0.43-0.74-0.7-1.21-0.79c-0.48-0.09-1,0.01-1.43,0.32l0,0
		c-0.41,0.29-0.66,0.73-0.75,1.19c-0.08,0.46,0.01,0.95,0.29,1.37c4.15,6.02,6.56,13.34,6.48,21.23
		c-0.19,20.05-16.61,36.4-36.66,36.5C21.7,69.47,10.99,63.75,4.22,54.86c-0.37-0.49-0.93-0.75-1.5-0.75c-0.38,0-0.75,0.11-1.08,0.35
		c-0.37,0.27-0.62,0.65-0.72,1.06c-0.13,0.52-0.04,1.1,0.32,1.56c6.95,9.15,17.7,15.25,29.89,15.97v9.78h-2.25
		c-0.87,0-1.64,0.46-2.07,1.15c-0.23,0.37-0.36,0.81-0.36,1.27c0,0.76,0.35,1.44,0.9,1.89c0.42,0.34,0.95,0.54,1.53,0.54h9.36
		c0.8,0,1.5-0.38,1.95-0.97c0.3-0.41,0.48-0.91,0.48-1.45c0-0.79-0.37-1.48-0.95-1.93c-0.41-0.31-0.92-0.5-1.48-0.5h-2.25v-9.78
		C57.02,71.8,73.91,54.3,74.13,32.99z"/>
</g>
</svg>
