<?xml version="1.0" encoding="utf-8"?>
<!-- Generator: Adobe Illustrator 25.3.1, SVG Export Plug-In . SVG Version: 6.00 Build 0)  -->
<svg version="1.1" id="Layer_1" xmlns="http://www.w3.org/2000/svg" xmlns:xlink="http://www.w3.org/1999/xlink" x="0px" y="0px"
	 viewBox="0 0 900 600" style="enable-background:new 0 0 900 600;" xml:space="preserve">
<style type="text/css">
	.st0{fill:#032EA1;}
	.st1{fill:#E00025;}
	.st2{fill:#FFFFFF;stroke:#000000;stroke-width:1.536;stroke-linejoin:bevel;stroke-miterlimit:6.4;}
	.st3{fill:#FFFFFF;stroke:#000000;stroke-width:1.512;stroke-linejoin:bevel;stroke-miterlimit:6.4;}
	.st4{fill:#FFFFFF;stroke:#000000;stroke-width:1.536;stroke-miterlimit:6.4;}
	.st5{fill:#FFFFFF;stroke:#000000;stroke-width:1.5696;stroke-miterlimit:6.4;}
	.st6{fill:none;stroke:#000000;stroke-width:1.28;stroke-miterlimit:6.4;}
	.st7{fill:none;stroke:#000000;stroke-width:1.536;stroke-miterlimit:6.4;}
	.st8{fill:#FFFFFF;stroke:#000000;stroke-width:1.6544;stroke-linejoin:bevel;stroke-miterlimit:6.4;}
	.st9{fill:#FFFFFF;stroke:#000000;stroke-width:1.672;stroke-miterlimit:6.4;}
	.st10{fill:#FFFFFF;stroke:#000000;stroke-width:1.6688;stroke-miterlimit:6.4;}
</style>
<path class="st0" d="M-18.8,0h937.5v600H-18.8V0z"/>
<path class="st1" d="M-18.8,150h937.5v300H-18.8V150z"/>
<g transform="matrix(1.6,0,0,1.6,187.4272,-697.54433)">
	<g>
		<path class="st2" d="M111.3,611.7H218v41.1H111.3V611.7z"/>
		<path class="st2" d="M212.5,634.4h3.4v15.5h-3.4V634.4z M111.3,626.8H218v4.8H111.3V626.8z M111.3,620.3H218v4.2H111.3V620.3z"/>
		<path class="st3" d="M111.3,613.8H218v4.1H111.3V613.8z"/>
		<path class="st2" d="M139.4,634.4h3.4v15.5h-3.4V634.4z M185.3,634.4h3.4v15.5h-3.4V634.4z M112.1,634.4h3.4v15.5h-3.4V634.4z
			 M118.7,634.4h3.4v15.5h-3.4V634.4z M125.8,634.4h3.4v15.5h-3.4V634.4z M132.8,634.4h3.4v15.5h-3.4V634.4z M191.7,634.4h3.4v15.5
			h-3.4V634.4z M198.7,634.4h3.4v15.5h-3.4V634.4z M205.7,634.4h3.4v15.5h-3.4V634.4z"/>
		<path class="st4" d="M69.6,655c1.7-0.8,3.5-2.8,4.1-5h181c0.6,2.2,2.5,4.1,4.1,5H69.6z"/>
	</g>
	<path class="st4" d="M161.9,549.2c0,0-0.1-3.9,2.1-3.9c2.2,0,2.1,3.9,2.1,3.9H161.9z M150.2,600.4v-5.2c-0.1-2.6-2.6-2.8-2.7-4.7
		c0,0-0.3-2.8,0.4-4.1c1,3.8,2.9,3.1,2.9,1.5c0-1.4-1-2.6-3.2-5.9c-0.7-1.1-0.3-4.4,0.7-5.6c0.4,2.9,0.8,4.3,2,4.3
		c0.8,0,1.4-0.5,1.4-1.9c0-1.8-1.2-2.8-1.9-4.4c-0.7-1.9-0.2-3.9,1-5c0.5,2.8,0.4,4,1.6,4c2.5-0.8,0-4.5-0.5-5.4
		c-0.6-1.1,0.8-3.2,0.8-3.2c0.8,2.5,1.1,2.7,1.9,2.5c1.1-0.3,1-1.9-0.4-3.2c-0.8-0.8-0.8-2.1,0.2-3.1c0.9,1.8,2.1,1.7,2.2,0.6
		l-0.7-4.1h16.2l-0.8,4c-0.2,1.1,1.3,1.4,2.3-0.5c0.9,1,1,2.2,0.2,3.1c-1.3,1.3-1.5,3-0.4,3.2c0.9,0.2,1.1,0,1.9-2.5
		c0,0,1.3,1.5,0.8,3.2c-0.5,0.9-3.1,4.6-0.5,5.4c1.3,0,1.1-1.1,1.6-4c1.2,1.1,1.7,3.1,1,5c-0.6,1.7-1.9,2.6-1.9,4.4
		c0,1.4,0.6,1.9,1.4,1.9c1.2,0,1.7-1.4,2-4.3c1,1.2,1.4,4.5,0.7,5.6c-2.1,3.3-3.2,4.6-3.2,5.9c0,1.6,1.8,2.3,2.9-1.5
		c0.7,1.3,0.4,4.1,0.4,4.1c-0.1,1.9-2.6,2.1-2.7,4.7v5.2H150.2z M157,557.2l-0.4-2.9h14.8l-0.4,2.9H157z M158,554.2l-0.3-2.4h12.8
		l-0.3,2.4H158z M160,551.8l-0.2-2.4h8.5l-0.2,2.4H160z M190.9,655c-1.9-0.7-4.7-2.7-4.7-4.8v-22.8l2.5-3.1h-49.5l2.4,3.1v22.8
		c0,2-1.9,4-3.8,4.8L190.9,655z"/>
	<path class="st2" d="M148.1,634.4h3.4v15.5h-3.4V634.4z M176.5,634.4h3.4v15.5h-3.4V634.4z"/>
	<path class="st4" d="M138.4,598.3v25.9H189v-5.6l0.1-20.3c-2.1,0.8-2.4,2.7-2.4,2.7v11H141v-11C141,601,140.4,599.2,138.4,598.3
		L138.4,598.3z"/>
	<path class="st4" d="M182.1,655c-1.7-0.7-5.3-2.7-5.3-4.8v-25.5c0.4-1.4,2.3-2.3,3.5-3.1h-33.6c1.6,0.8,3.4,1.5,4,3.2v25.5
		c0,2-2.8,4-4.5,4.8L182.1,655z"/>
	<path class="st4" d="M186.7,621.8v-18.4h-4.6v-1.8h-36.4v1.8H141v18.4H186.7z M174.9,655c-1.6-0.7-4-2.7-4-4.8v-21.8l1.3-2h-16.6
		l1.3,2v21.8c0,2-2.4,4-4,4.8L174.9,655z"/>
	<path class="st5" d="M159.8,626.5h8.4v28.5h-8.4V626.5z"/>
	<path class="st2" d="M172.6,620.2c0-1.9,5.5-2,8.3-3.6h-33.7c2.8,1.6,8.1,1.7,8.1,3.6l1.1,3.6l14,0.6L172.6,620.2z"/>
	<path class="st4" d="M179.2,600.4c0-4.6,0.2-6.4,1.6-6.4v14.6c-3.5,1.3-5.9,5.7-5.9,5.7h-21.8c0,0-2.5-4.4-5.9-5.7V594
		c1.7,0,1.8,1.8,1.8,6.4H179.2z M180.8,598.5c0-5.3,4.5-5.9,4.5-5.9v4.7c-1.7-0.1-2.6,1.5-2.6,3.8c0,2.3,1.4,2.3,1.4,2.3v13.3h-3.4
		L180.8,598.5z"/>
	<path class="st4" d="M147.2,598.5c0-5.3-4.5-5.9-4.5-5.9v4.7c1.7-0.1,2.6,1.5,2.6,3.8c0,2.3-1.4,2.3-1.4,2.3v13.3h3.4L147.2,598.5z
		"/>
	<g>
		<path class="st6" d="M156.1,562.2h16.1 M154.2,567.2h19.6 M152.3,573.3h23.3 M150.3,580.7H178 M149.7,589.2h28.5"/>
		<path class="st7" d="M141,616.9h45.6 M155.5,616.9h16.9v6.2h-16.9V616.9z"/>
	</g>
	<path class="st4" d="M153.4,603.1c2.8,3.4,2.5,9.1,2.5,12.4h16.3c0-3.4-0.3-9.1,2.5-12.4H153.4z M162.5,564.5l-2.2-1.1v-3.3
		c0.9,0.3,1.9,0.4,2,1.8c0.3-2.1,0.9-2,1.8-2.8c0.9,0.8,1.5,0.7,1.8,2.8c0.1-1.5,1.1-1.6,2-1.8v3.3l-2.2,1.1L162.5,564.5z"/>
	<path class="st4" d="M162.4,569.9l-3.7-2.5v-3c1.3,0.3,2.8,0.4,2.9,2c0.5-2.3,1.3-3.4,2.5-4.3c1.3,0.9,2.1,2.1,2.5,4.3
		c0.1-1.6,1.6-1.7,2.9-2v3l-3.7,2.5H162.4z"/>
	<path class="st4" d="M162.1,578.3l-4.3-3.7v-4.4c1.5,0.4,3.2,0.6,3.3,3c0.5-3.3,1.5-5.1,2.9-6.4c1.5,1.3,2.4,3,2.9,6.4
		c0.2-2.3,1.8-2.5,3.3-3v4.4l-4.3,3.7L162.1,578.3z M170,583.3l-3.8,5.3h-4.4l-3.8-5.3H170z M155.7,592.2c1.9,1.1,2.6,3.1,2.8,7.1
		h10.8c0.2-3.9,0.9-6,2.8-7.1H155.7z"/>
	<path class="st2" d="M172.4,583.3v-5.3c-1.8,0.5-3,1.6-3.5,3.1c0-1.8-2.3-5.9-4.9-7.9c-2.6,2.3-4.9,6-4.9,7.9
		c-0.4-1.4-1.7-2.5-3.5-3.1v5.3H172.4z"/>
	<path class="st2" d="M173.2,592.2v-5.3c-2,0.5-3.3,1.6-3.9,3.1c0-1.8-2.6-5.9-5.4-7.9c-2.8,2.3-5.4,6-5.4,7.9
		c-0.5-1.4-1.9-2.5-3.9-3.1v5.3H173.2z"/>
	<path class="st2" d="M175.4,603.2V597c-2.5,0.6-4,2.5-4.8,3.6c0-3.3-3.8-8.4-6.7-10.1c-3,1.7-6.7,7-6.7,10.1
		c-0.8-1.1-2.3-2.9-4.8-3.6v6.2H175.4z"/>
	<path class="st2" d="M174.1,616.9v-6.3c-2.2,0.9-2.9,3-3.5,4.4c0.3-6.4-3.6-13.3-6.6-15.1c-3,1.8-6.9,8.8-6.6,15.1
		c-0.7-1.4-1.4-3.6-3.5-4.4v6.3H174.1z"/>
	<path class="st4" d="M172.5,626.5v-6.3c-2.3,0.5-2.4,1.4-3.2,2.8c0.3-3.8-2.4-8.2-5.4-10c-3,1.8-5.7,6.1-5.4,10
		c-0.7-1.4-0.8-2.3-3.2-2.8v6.3H172.5z"/>
	<g id="a">
		<path class="st4" d="M73.7,650v-19.2c-0.6-2.4-2.7-4.6-4.3-5v-16.9l3.5,1.9l4,17.6V650H73.7z"/>
		<path class="st4" d="M73.7,650v-19.2c-0.6-2.4-2.7-4.6-4.3-5v-18c2.4,0,3.5,3.1,3.5,3.1l4,17.6v21.5L73.7,650z"/>
		<path class="st4" d="M71.2,655c1.6-0.7,4-2.7,4-4.8v-24l-1.1-2h40.8l-1.6,2v24c0,2,1.6,4,3.2,4.8H71.2z"/>
		<path class="st4" d="M108.3,655c-1.6-0.7-4-2.7-4-4.8v-22.8l3.4-3.1l-27.7,0l3.4,3.1v22.8c0,2-2.4,4-4,4.8H108.3z"/>
		<path class="st4" d="M104.4,655c-1.6-0.7-4-2.7-4-4.8v-20.6l2.2-3.1H85l2.2,3.1v20.6c0,2-2.4,4-4,4.8H104.4z"/>
		<path class="st4" d="M89.6,626.5h8.4V655h-8.4V626.5z"/>
		<path class="st2" d="M78.2,634.4h3.4v15.5h-3.4V634.4z M107,634.4h3.4v15.5H107V634.4z M75.3,608.3h4.1v15.9h-4.1V608.3z
			 M75.3,605.3h4v2.9h-4V605.3z"/>
		<path class="st8" d="M108.6,611.7h5.8V624h-5.8V611.7z"/>
		<path class="st4" d="M79.3,624.1v-27.1c1.2,0,1.3,4,4,4c1.4,0,1.2-1.6,0.5-3c-0.7-1.2-1.5-2.8-0.4-5.9c0.8,2.3,2.9,3.1,2.5,1.6
			c-0.7-2.5-2.6-2.9-1.2-6.8c0.5,3.3,2.6,3.1,2.1,1.2c-0.6-2.1-1.8-3-0.3-6c0.8,3.4,1.9,3.2,1.9,1.1c0-3.1-0.1-6.5,3.9-7.8
			c0,0,0.2-2.9,1.7-2.9c1.5,0,1.7,2.9,1.7,2.9c4.1,1.3,3.9,4.6,3.9,7.8c0,2.1,1.1,2.3,1.9-1.1c1.5,3,0.3,3.9-0.3,6
			c-0.5,1.9,1.6,2,2.1-1.2c1.5,3.9-0.5,4.3-1.2,6.8c-0.4,1.5,1.7,0.7,2.5-1.6c1.2,3.1,0.3,4.7-0.4,5.9c-0.8,1.3-0.9,3,0.5,3
			c2.6,0,2.8-4,4-4v27.1L79.3,624.1z M73,603.6v20.7h2.4v-20.8C74.5,603.1,73.7,603,73,603.6L73,603.6z"/>
		<path class="st4" d="M73,617c2.9,1.5,5.8,3.2,6.5,7.3H73V617z M113.5,610.8v13.5h1.9v-13.5C114.8,610.5,114,610.4,113.5,610.8z"/>
		<path class="st4" d="M115.4,616.9c-2.9,1.5-5.8,3.2-6.5,7.3h6.5V616.9z"/>
		<path class="st4" d="M96.1,585.3l1.7-1.4v-1.8c-0.6,0.1-1,0.3-1.4,0.9c-0.4-1.2-1.3-2.2-2.4-2.7c-1.2,0.6-2,1.5-2.4,2.7
			c-0.5-0.6-0.8-0.8-1.4-0.8v1.8l1.7,1.4H96.1z"/>
		<path class="st4" d="M97,589.9l0.8-1.7v-2.4c-0.6,0.1-1,0.3-1.4,0.9c-0.4-1.2-1.3-2.2-2.4-2.8c-1.2,0.6-2,1.5-2.4,2.7
			c-0.5-0.6-0.8-0.8-1.4-0.8v2.4l0.8,1.7L97,589.9z"/>
		<path class="st4" d="M97.1,596.1l2.5-3.1v-3c-0.9,0.1-1.4,0.5-2.1,1.5c-0.6-2.1-1.9-2.5-3.6-3.5c-1.7,1-3,1.4-3.6,3.5
			c-0.7-1-1.2-1.3-2.1-1.4v3l2.5,3.1H97.1z"/>
		<path class="st4" d="M97.9,602.2c0,0,2.9-2.6,3.1-4V595c-1.1,0.1-2.2,0.4-3.1,1.8c-0.7-2.7-1.8-3.4-3.9-4.7
			c-2.1,1.3-3.2,2.1-3.9,4.7c-0.8-1.3-1.9-1.6-3.1-1.8v3.2c0.4,1.4,3.1,4,3.1,4L97.9,602.2z"/>
		<path class="st4" d="M99.1,613.5c0,0,4-4.5,4.1-6.2v-5.1c-1.5,0.2-2.9,1.2-4.1,3.3c-0.9-4.2-2.4-7.1-5.2-9.2c-2.8,2-4.3,5-5.2,9.2
			c-1.1-2.1-2.5-3.1-4.1-3.3v5.1c0.3,1.7,4.1,6.2,4.1,6.2L99.1,613.5z"/>
		<path class="st4" d="M99.1,620.2c0,0,3.4-3.5,4.1-5v-5.1c-1.5,0.2-2.9,1.2-4.1,3.3c-0.9-4.2-2.4-6.6-5.2-8.6
			c-2.8,2-4.3,4.4-5.2,8.6c-1.1-2.1-2.5-3.1-4.1-3.3v5.1c0.9,1.5,4.1,5,4.1,5L99.1,620.2z"/>
		<path class="st4" d="M100.5,624c-1-4.4-1.9-7.6-6.7-10.9c-4.8,3.3-5.7,6.5-6.7,10.9H100.5z"/>
		<path class="st4" d="M103,626.5v-6.3c-2.2,0.9-4.2,2.1-4.9,3.6c-0.8-3.5-2.4-5.1-4.4-7.2c-2,2.1-3.3,3.7-4.1,7.2
			c-0.7-1.4-2.7-2.7-4.9-3.6v6.3H103z"/>
	</g>
	<g transform="matrix(-1,0,0,1,390.74,0)">
		<g id="a_1_">
			<path class="st4" d="M254.5,650v-19.2c0.6-2.4,2.7-4.6,4.3-5v-16.9l-3.5,1.9l-4,17.6V650H254.5z"/>
			<path class="st4" d="M254.5,650v-19.2c0.6-2.4,2.7-4.6,4.3-5v-18c-2.4,0-3.5,3.1-3.5,3.1l-4,17.6v21.5L254.5,650z"/>
			<path class="st4" d="M257,655c-1.6-0.7-4-2.7-4-4.8v-24l1.1-2h-40.8l1.6,2v24c0,2-1.6,4-3.2,4.8H257z"/>
			<path class="st4" d="M219.9,655c1.6-0.7,4-2.7,4-4.8v-22.8l-3.4-3.1l27.7,0l-3.4,3.1v22.8c0,2,2.4,4,4,4.8H219.9z"/>
			<path class="st4" d="M223.8,655c1.6-0.7,4-2.7,4-4.8v-20.6l-2.2-3.1h17.6l-2.2,3.1v20.6c0,2,2.4,4,4,4.8H223.8z"/>
			<path class="st4" d="M238.6,626.5h-8.4V655h8.4V626.5z"/>
			<path class="st2" d="M250.1,634.4h-3.4v15.5h3.4V634.4z M221.2,634.4h-3.4v15.5h3.4V634.4z M252.9,608.3h-4.1v15.9h4.1V608.3z
				 M252.9,605.3h-4v2.9h4V605.3z"/>
			<path class="st8" d="M219.6,611.7h-5.8V624h5.8V611.7z"/>
			<path class="st4" d="M248.9,624.1v-27.1c-1.2,0-1.3,4-4,4c-1.4,0-1.2-1.6-0.5-3c0.7-1.2,1.5-2.8,0.4-5.9
				c-0.8,2.3-2.9,3.1-2.5,1.6c0.7-2.5,2.6-2.9,1.2-6.8c-0.5,3.3-2.6,3.1-2.1,1.2c0.6-2.1,1.8-3,0.3-6c-0.8,3.4-1.9,3.2-1.9,1.1
				c0-3.1,0.1-6.5-3.9-7.8c0,0-0.2-2.9-1.7-2.9s-1.7,2.9-1.7,2.9c-4.1,1.3-3.9,4.6-3.9,7.8c0,2.1-1.1,2.3-1.9-1.1
				c-1.5,3-0.3,3.9,0.3,6c0.5,1.9-1.6,2-2.1-1.2c-1.5,3.9,0.5,4.3,1.2,6.8c0.4,1.5-1.7,0.7-2.5-1.6c-1.2,3.1-0.3,4.7,0.4,5.9
				c0.8,1.3,0.9,3-0.5,3c-2.6,0-2.8-4-4-4v27.1L248.9,624.1z M255.3,603.6v20.7h-2.4v-20.8C253.8,603.1,254.6,603,255.3,603.6
				L255.3,603.6z"/>
			<path class="st4" d="M255.2,617c-2.9,1.5-5.8,3.2-6.5,7.3h6.5V617z M214.7,610.8v13.5h-1.9v-13.5
				C213.4,610.5,214.2,610.4,214.7,610.8z"/>
			<path class="st4" d="M212.8,616.9c2.9,1.5,5.8,3.2,6.5,7.3h-6.5V616.9z"/>
			<path class="st4" d="M232.1,585.3l-1.7-1.4v-1.8c0.6,0.1,1,0.3,1.4,0.9c0.4-1.2,1.3-2.2,2.4-2.7c1.2,0.6,2,1.5,2.4,2.7
				c0.5-0.6,0.8-0.8,1.4-0.8v1.8l-1.7,1.4H232.1z"/>
			<path class="st4" d="M231.2,589.9l-0.8-1.7v-2.4c0.6,0.1,1,0.3,1.4,0.9c0.4-1.2,1.3-2.2,2.4-2.8c1.2,0.6,2,1.5,2.4,2.7
				c0.5-0.6,0.8-0.8,1.4-0.8v2.4l-0.8,1.7L231.2,589.9z"/>
			<path class="st4" d="M231.1,596.1l-2.5-3.1v-3c0.9,0.1,1.4,0.5,2.1,1.5c0.6-2.1,1.9-2.5,3.6-3.5c1.7,1,3,1.4,3.6,3.5
				c0.7-1,1.2-1.3,2.1-1.4v3l-2.5,3.1H231.1z"/>
			<path class="st4" d="M230.4,602.2c0,0-2.9-2.6-3.1-4V595c1.1,0.1,2.2,0.4,3.1,1.8c0.7-2.7,1.8-3.4,3.9-4.7
				c2.1,1.3,3.2,2.1,3.9,4.7c0.8-1.3,1.9-1.6,3.1-1.8v3.2c-0.4,1.4-3.1,4-3.1,4L230.4,602.2z"/>
			<path class="st4" d="M229.1,613.5c0,0-4-4.5-4.1-6.2v-5.1c1.5,0.2,2.9,1.2,4.1,3.3c0.9-4.2,2.4-7.1,5.2-9.2c2.8,2,4.3,5,5.2,9.2
				c1.1-2.1,2.5-3.1,4.1-3.3v5.1c-0.3,1.7-4.1,6.2-4.1,6.2L229.1,613.5z"/>
			<path class="st4" d="M229.1,620.2c0,0-3.4-3.5-4.1-5v-5.1c1.5,0.2,2.9,1.2,4.1,3.3c0.9-4.2,2.4-6.6,5.2-8.6
				c2.8,2,4.3,4.4,5.2,8.6c1.1-2.1,2.5-3.1,4.1-3.3v5.1c-0.9,1.5-4.1,5-4.1,5L229.1,620.2z"/>
			<path class="st4" d="M227.7,624c1-4.4,1.9-7.6,6.7-10.9c4.8,3.3,5.7,6.5,6.7,10.9H227.7z"/>
			<path class="st4" d="M225.2,626.5v-6.3c2.2,0.9,4.2,2.1,4.9,3.6c0.8-3.5,2.4-5.1,4.4-7.2c2,2.1,3.3,3.7,4.1,7.2
				c0.7-1.4,2.7-2.7,4.9-3.6v6.3H225.2z"/>
		</g>
	</g>
	<g>
		<path class="st4" d="M64.8,654.7v5.8h198.6v-5.8L64.8,654.7z M61.2,660.5v7.5H267v-7.5H61.2z M267,668.1l-205.8,0.1l-6-0.1v10H273
			v-10L267,668.1z M49.1,678.1l0,11.7h230l0-11.7H49.1z M279.1,689.8L279.1,689.8l-230,0v0H43v11.7h242.1v-11.7H279.1z"/>
		<path class="st9" d="M86.3,654.7h15v46.8h-15V654.7z"/>
		<path class="st10" d="M89.7,654.7H98v46.8h-8.4V654.7z"/>
		<path class="st9" d="M156.3,654.7h15v46.8h-15V654.7z"/>
		<path class="st10" d="M159.8,654.7h8.4v46.8h-8.4L159.8,654.7z"/>
		<path class="st9" d="M226.8,654.7h15v46.8h-15V654.7z"/>
		<path class="st10" d="M230.1,654.7h8.4v46.8h-8.4V654.7z"/>
	</g>
	<g>
		<path class="st7" d="M73.7,650h181 M89.5,695.7h8.7 M89.5,689.8h8.7 M89.5,683.9h8.7 M89.5,678.1h8.7 M89.5,672.2h8.7 M89.5,666.4
			h8.7 M89.5,660.5h8.7 M159.8,695.7h8.1 M159.8,689.8h8.1 M159.8,683.9h8.1 M159.8,678.1h8.1 M159.8,672.2h8.1 M159.8,666.4h8.1
			 M159.8,660.5h8.1 M229.9,695.7h8.7 M229.9,689.8h8.7 M229.9,683.9h8.7 M229.9,678.1h8.7 M229.9,672.2h8.7 M229.9,666.4h8.7
			 M229.9,660.5h8.7"/>
	</g>
</g>
</svg>
