<?xml version="1.0" encoding="utf-8"?>
<!-- Generator: Adobe Illustrator 25.4.1, SVG Export Plug-In . SVG Version: 6.00 Build 0)  -->
<svg version="1.1" id="Layer_1" xmlns="http://www.w3.org/2000/svg" xmlns:xlink="http://www.w3.org/1999/xlink" x="0px" y="0px"
	 viewBox="0 0 192.1 217.6" style="enable-background:new 0 0 192.1 217.6;" xml:space="preserve">
<style type="text/css">
	.st0{fill:#FFFFFF;}
</style>
<g>
	<path class="st0" d="M179.4,120.8H12.7c-7,0-12.7,5.7-12.7,12.7v71.4c0,7,5.7,12.7,12.7,12.7h166.7c7,0,12.7-5.7,12.7-12.7v-71.4
		C192.1,126.5,186.4,120.8,179.4,120.8z M185.2,202.5c0,5.2-4.2,9.4-9.4,9.4H16.3c-5.2,0-9.4-4.2-9.4-9.4v-66.6
		c0-5.2,4.2-9.4,9.4-9.4h159.5c5.2,0,9.4,4.2,9.4,9.4V202.5z"/>
	<polygon class="st0" points="80.5,162 61.8,162 61.8,143.3 47.3,143.3 47.3,162 28.6,162 28.6,176.4 47.3,176.4 47.3,195.1 
		61.8,195.1 61.8,176.4 80.5,176.4 	"/>
	<circle class="st0" cx="125.2" cy="184.4" r="10.7"/>
	<circle class="st0" cx="146.5" cy="153.9" r="10.7"/>
	<path class="st0" d="M89.2,94.3c0.1-15.7,6.2-28.4,17.8-38.8c5.9-5.2,11.6-10.7,16.8-16.6c8.9-10.2,13.8-22.5,16.7-35.6
		c0.5-2.5,1.9-3.6,3.9-3.2c2.5,0.5,3.8,2.4,3.1,4.9c-1.6,5.6-3,11.3-5.1,16.7c-5.1,13.5-13.8,24.5-24.6,34.1
		c-3.7,3.3-7.4,6.6-10.8,10.2c-7,7.4-10.1,16.5-10.3,26.6c-0.2,9.1,1.6,17.9,4.6,26.5c1.2,3.4-1.3,5.4-3.9,5c-1.5-0.2-2.4-1-2.9-2.4
		c-2.1-6.1-3.7-12.3-4.5-18.7C89.6,100.1,89.4,97.2,89.2,94.3z"/>
</g>
</svg>
