<?xml version="1.0" encoding="utf-8"?>
<!-- Generator: Adobe Illustrator 25.3.1, SVG Export Plug-In . SVG Version: 6.00 Build 0)  -->
<svg version="1.1" id="Layer_1" xmlns="http://www.w3.org/2000/svg" xmlns:xlink="http://www.w3.org/1999/xlink" x="0px" y="0px"
	 viewBox="0 0 79 79" style="enable-background:new 0 0 79 79;" xml:space="preserve">
<style type="text/css">
	.st0{fill:#FFFFFF;}
</style>
<g>
	<g>
		<path class="st0" d="M42.59,22.63c0-2.27-1.5-3.73-3.86-3.73c-2,0-3.59,1.05-5.05,2.55L30,18.08c2.36-2.68,5.59-4.55,9.55-4.55
			c5.45,0,9.45,2.82,9.45,8.64c0,6.45-7.91,8.64-7.23,15.05h-5.82C34.86,29.9,42.59,26.99,42.59,22.63z M34.73,44.95
			c0-2.45,1.77-4.36,4.14-4.36c2.41,0,4.18,1.91,4.18,4.36s-1.77,4.36-4.18,4.36C36.5,49.31,34.73,47.4,34.73,44.95z"/>
	</g>
	<path class="st0" d="M78.9,39.5c0,21.76-17.64,39.4-39.4,39.4S0.1,61.26,0.1,39.5S17.74,0.1,39.5,0.1S78.9,17.74,78.9,39.5z
		 M39.5,4.54C20.19,4.54,4.54,20.19,4.54,39.5S20.19,74.46,39.5,74.46S74.46,58.81,74.46,39.5S58.81,4.54,39.5,4.54z"/>
</g>
</svg>
