<?xml version="1.0" encoding="utf-8"?>
<!-- Generator: Adobe Illustrator 25.3.1, SVG Export Plug-In . SVG Version: 6.00 Build 0)  -->
<svg version="1.1" id="Layer_1" xmlns="http://www.w3.org/2000/svg" xmlns:xlink="http://www.w3.org/1999/xlink" x="0px" y="0px"
	 viewBox="0 0 87 88" style="enable-background:new 0 0 87 88;" xml:space="preserve">
<style type="text/css">
	.st0{fill:#FFFFFF;}
</style>
<path class="st0" d="M86.9,43.65c0.18,23.96-19.03,43.49-42.92,43.74C19.95,87.66,0.41,68.43,0.1,44.59
	C-0.21,20.51,19.01,1,42.75,0.61C67.03,0.2,86.71,19.66,86.9,43.65z M64.76,26.85c1.62,4.89,2.54,9.89,2.76,15.02
	c5.04,0,10.06,0,15.1,0c-0.45-7.58-2.86-14.45-7.24-20.64C72.02,23.48,68.5,25.35,64.76,26.85z M4.38,41.86c5.05,0,10.07,0,15.1,0
	c0.22-5.14,1.14-10.14,2.76-15.01c-1.88-0.75-3.69-1.59-5.45-2.53c-1.77-0.94-3.48-1.96-5.17-3.09C7.24,27.42,4.83,34.29,4.38,41.86
	z M11.62,66.77c1.66-1.12,3.36-2.13,5.1-3.06c1.75-0.93,3.55-1.76,5.39-2.51c-1.59-4.91-2.47-9.93-2.65-15.06
	c-5.05,0-10.06,0-15.08,0C4.84,53.72,7.24,60.58,11.62,66.77z M67.54,46.13c-0.18,5.15-1.07,10.17-2.65,15.07
	c3.7,1.49,7.18,3.35,10.5,5.57c4.38-6.19,6.78-13.06,7.24-20.64C77.59,46.13,72.58,46.13,67.54,46.13z M23.71,46.13
	c-0.14,2.85,1.37,11.44,2.39,13.6c0.01,0,0.03,0.01,0.04,0.01c0.07-0.02,0.14-0.04,0.21-0.06c4.81-1.5,9.73-2.37,14.77-2.57
	c0.2-0.01,0.26-0.07,0.26-0.27c-0.01-3.49,0-6.98,0-10.47c0-0.08-0.01-0.16-0.01-0.24C35.47,46.13,29.6,46.13,23.71,46.13z
	 M45.63,57.1c5.21,0.2,10.3,1.09,15.27,2.67c1.42-4.46,2.22-8.98,2.4-13.63c-5.91,0-11.79,0-17.67,0
	C45.63,49.8,45.63,53.43,45.63,57.1z M41.37,30.91c-5.17-0.2-10.21-1.07-15.15-2.63c-1.46,4.44-2.29,8.95-2.51,13.59
	c5.9,0,11.77,0,17.66,0C41.37,38.21,41.37,34.57,41.37,30.91z M60.78,28.3c-0.05,0-0.06,0-0.08,0c-0.08,0.02-0.16,0.04-0.23,0.07
	c-4.76,1.47-9.62,2.32-14.6,2.52c-0.22,0.01-0.26,0.08-0.26,0.29c0.01,3.48,0,6.96,0,10.45c0,0.08,0.01,0.16,0.01,0.25
	c5.89,0,11.76,0,17.66,0C63.06,37.23,62.23,32.71,60.78,28.3z M27.56,63.74c3.13,7.42,7.71,13.74,13.81,19.02
	c0-7.17,0-14.29,0-21.43C36.66,61.53,32.07,62.33,27.56,63.74z M45.63,82.76c3.04-2.62,5.7-5.51,8.03-8.72
	c2.32-3.21,4.25-6.63,5.77-10.29c-2.61-1.08-12.39-2.76-13.8-2.38C45.63,68.49,45.63,75.6,45.63,82.76z M27.72,24.31
	c4.47,1.39,9,2.17,13.64,2.36c0-7.01,0-13.98,0-21c-2.72,2.34-5.14,4.9-7.29,7.72C31.51,16.76,29.4,20.39,27.72,24.31z M59.28,24.31
	c-3.13-7.27-7.66-13.46-13.65-18.65c0,7.03,0,14.01,0,21.01C50.28,26.48,54.81,25.69,59.28,24.31z M35.03,5.77
	c-8.2,1.85-15.1,5.91-20.75,12.14c2.99,1.99,6.13,3.63,9.45,4.98C26.43,16.47,30.21,10.78,35.03,5.77z M51.96,5.77
	c2.38,2.5,4.54,5.16,6.45,8.03c1.9,2.87,3.52,5.9,4.86,9.08c3.33-1.35,6.47-2.99,9.43-4.96c-2.34-2.68-6.14-6.08-11.09-8.66
	C58.55,7.67,55.34,6.49,51.96,5.77z M52.47,82.13c7.99-1.92,14.72-5.94,20.25-12.03c-2.95-1.96-6.04-3.58-9.3-4.91
	c-1.3,3.14-2.86,6.12-4.7,8.96S54.78,79.64,52.47,82.13z M14.27,70.09c5.53,6.09,12.26,10.11,20.25,12.03
	c-4.68-4.98-8.33-10.62-10.95-16.94C20.31,66.52,17.22,68.14,14.27,70.09z"/>
</svg>
