<?xml version="1.0" encoding="utf-8"?>
<!-- Generator: Adobe Illustrator 25.3.1, SVG Export Plug-In . SVG Version: 6.00 Build 0)  -->
<svg version="1.1" id="Layer_1" xmlns="http://www.w3.org/2000/svg" xmlns:xlink="http://www.w3.org/1999/xlink" x="0px" y="0px"
	 viewBox="0 0 125 125" style="enable-background:new 0 0 125 125;" xml:space="preserve">
<style type="text/css">
	.st0{fill:#FFFFFF;}
</style>
<path class="st0" d="M106.75,43.76h-88.5c-2.4,0-4.34-1.94-4.34-4.34v-6.57c0-2.4,1.94-4.34,4.34-4.34h88.5
	c2.4,0,4.34,1.94,4.34,4.34v6.57C111.09,41.82,109.15,43.76,106.75,43.76z"/>
<path class="st0" d="M106.75,70.12h-88.5c-2.4,0-4.34-1.94-4.34-4.34v-6.57c0-2.4,1.94-4.34,4.34-4.34h88.5
	c2.4,0,4.34,1.94,4.34,4.34v6.57C111.09,68.18,109.15,70.12,106.75,70.12z"/>
<path class="st0" d="M106.75,96.48h-88.5c-2.4,0-4.34-1.94-4.34-4.34v-6.57c0-2.4,1.94-4.34,4.34-4.34h88.5
	c2.4,0,4.34,1.94,4.34,4.34v6.57C111.09,94.54,109.15,96.48,106.75,96.48z"/>
</svg>
