<?xml version="1.0" encoding="utf-8"?>
<!-- Generator: Adobe Illustrator 25.3.1, SVG Export Plug-In . SVG Version: 6.00 Build 0)  -->
<svg version="1.1" id="Layer_1" xmlns="http://www.w3.org/2000/svg" xmlns:xlink="http://www.w3.org/1999/xlink" x="0px" y="0px"
	 viewBox="0 0 64 96" style="enable-background:new 0 0 64 96;" xml:space="preserve">
<style type="text/css">
	.st0{fill:#FFFFFF;}
</style>
<g>
	<path class="st0" d="M51.73,0.36h-40.1c-6.55,0-11.86,5.31-11.86,11.86v72.16c0,6.55,5.31,11.86,11.86,11.86h40.11
		c6.55,0,11.86-5.31,11.86-11.86V12.22C63.59,5.67,58.28,0.36,51.73,0.36z M61.3,83.11c0,5.62-4.56,10.18-10.18,10.18H12.24
		c-5.62,0-10.18-4.56-10.18-10.18V13.48C2.06,7.86,6.62,3.3,12.24,3.3h38.87c5.62,0,10.18,4.56,10.18,10.18L61.3,83.11L61.3,83.11z"
		/>
	<path class="st0" d="M37.29,8.79H26.07c-0.81,0-1.52-0.43-1.91-1.07c-0.21-0.34-0.33-0.74-0.33-1.17l0,0c0-0.53,0.19-1.02,0.5-1.41
		c0.41-0.51,1.04-0.83,1.75-0.83H37.3c0.81,0,1.52,0.43,1.91,1.07c0.21,0.34,0.33,0.74,0.33,1.17l0,0c0,0.41-0.11,0.79-0.3,1.11
		C38.85,8.33,38.13,8.79,37.29,8.79z"/>
	<circle class="st0" cx="31.68" cy="87.42" r="5.02"/>
</g>
</svg>
