<?xml version="1.0" encoding="utf-8"?>
<!-- Generator: Adobe Illustrator 25.3.1, SVG Export Plug-In . SVG Version: 6.00 Build 0)  -->
<svg version="1.1" id="Layer_1" xmlns="http://www.w3.org/2000/svg" xmlns:xlink="http://www.w3.org/1999/xlink" x="0px" y="0px"
	 viewBox="0 0 125 125" style="enable-background:new 0 0 125 125;" xml:space="preserve">
<style type="text/css">
	.st0{fill:#FFFFFF;}
</style>
<g>
	<path class="st0" d="M124.78,62.9c0,34.3-27.8,62.1-62.1,62.1S0.58,97.2,0.58,62.9s27.8-62.1,62.1-62.1S124.78,28.6,124.78,62.9z
		 M62.68,7.8c-30.43,0-55.1,24.67-55.1,55.1S32.25,118,62.68,118s55.1-24.67,55.1-55.1S93.11,7.8,62.68,7.8z"/>
	<g>
		<path class="st0" d="M72.15,51.97c-2.54-2.29-4.77-3.47-7.62-3.47c-3.28,0-5.01,1.18-5.01,4.27c0,6.25,18.58,5.94,18.58,19.26
			c0,6.81-3.65,12.14-11.02,13.75v7.37h-7.24v-7c-4.15-0.49-9.16-2.35-12.57-5.45l4.83-7.43c3.65,2.79,6.75,4.09,9.97,4.09
			c3.84,0,5.51-1.49,5.51-4.52c0-6.75-18.51-6.93-18.51-19.57c0-7.06,4.02-11.95,10.77-13.31v-7.31h7.24v7.18
			c4.52,0.68,7.8,2.91,10.53,5.82L72.15,51.97z"/>
	</g>
</g>
</svg>
