<?xml version="1.0" encoding="utf-8"?>
<!-- Generator: Adobe Illustrator 25.3.1, SVG Export Plug-In . SVG Version: 6.00 Build 0)  -->
<svg version="1.1" id="Layer_1" xmlns="http://www.w3.org/2000/svg" xmlns:xlink="http://www.w3.org/1999/xlink" x="0px" y="0px"
	 viewBox="0 0 88 85" style="enable-background:new 0 0 88 85;" xml:space="preserve">
<style type="text/css">
	.st0{fill:#FFFFFF;}
</style>
<g>
	<path class="st0" d="M33.42,40.62h-25c-2.24,0-4.26-0.95-5.67-2.47c-1.29-1.39-2.08-3.25-2.08-5.29V7.87
		c0-1.47,0.41-2.85,1.13-4.03C3.15,1.6,5.61,0.11,8.42,0.11h24.99c2.41,0,4.57,1.1,5.99,2.83c1.1,1.34,1.77,3.06,1.77,4.93v24.99
		c0,2.11-0.84,4.03-2.21,5.43C37.55,39.72,35.59,40.62,33.42,40.62z M37.41,31.58V9.14c0-2.91-2.36-5.27-5.27-5.27H9.7
		c-2.91,0-5.27,2.36-5.27,5.27v22.44c0,2.91,2.36,5.27,5.27,5.27h22.44C35.05,36.85,37.41,34.49,37.41,31.58z"/>
	<path class="st0" d="M79.58,40.62h-25c-2.24,0-4.26-0.95-5.67-2.47c-1.29-1.39-2.08-3.25-2.08-5.29V7.87
		c0-1.47,0.41-2.85,1.13-4.03c1.36-2.24,3.82-3.73,6.63-3.73h24.99c2.41,0,4.57,1.1,5.99,2.83c1.1,1.34,1.77,3.06,1.77,4.93v24.99
		c0,2.11-0.84,4.03-2.21,5.43C83.71,39.72,81.75,40.62,79.58,40.62z M83.57,31.58V9.14c0-2.91-2.36-5.27-5.27-5.27H55.86
		c-2.91,0-5.27,2.36-5.27,5.27v22.44c0,2.91,2.36,5.27,5.27,5.27H78.3C81.21,36.85,83.57,34.49,83.57,31.58z"/>
	<path class="st0" d="M33.42,84.89h-25c-2.24,0-4.26-0.95-5.67-2.47c-1.29-1.39-2.08-3.25-2.08-5.29V52.14
		c0-1.47,0.41-2.85,1.13-4.03c1.36-2.24,3.82-3.73,6.63-3.73h24.99c2.41,0,4.57,1.1,5.99,2.83c1.1,1.34,1.77,3.06,1.77,4.93v24.99
		c0,2.11-0.84,4.03-2.21,5.43C37.55,84,35.59,84.89,33.42,84.89z M37.41,75.86V53.42c0-2.91-2.36-5.27-5.27-5.27H9.7
		c-2.91,0-5.27,2.36-5.27,5.27v22.44c0,2.91,2.36,5.27,5.27,5.27h22.44C35.05,81.12,37.41,78.77,37.41,75.86z"/>
	<path class="st0" d="M79.58,84.89h-25c-2.24,0-4.26-0.95-5.67-2.47c-1.29-1.39-2.08-3.25-2.08-5.29V52.14
		c0-1.47,0.41-2.85,1.13-4.03c1.36-2.24,3.82-3.73,6.63-3.73h24.99c2.41,0,4.57,1.1,5.99,2.83c1.1,1.34,1.77,3.06,1.77,4.93v24.99
		c0,2.11-0.84,4.03-2.21,5.43C83.71,84,81.75,84.89,79.58,84.89z M83.57,75.86V53.42c0-2.91-2.36-5.27-5.27-5.27H55.86
		c-2.91,0-5.27,2.36-5.27,5.27v22.44c0,2.91,2.36,5.27,5.27,5.27H78.3C81.21,81.12,83.57,78.77,83.57,75.86z"/>
</g>
</svg>
